<svg width="76" height="127" viewBox="0 0 76 127" fill="none" xmlns="http://www.w3.org/2000/svg">
<path fill-rule="evenodd" clip-rule="evenodd" d="M37.9703 63.4999C37.9703 51.8099 46.4703 42.3333 56.9555 42.3333C67.4407 42.3333 75.9406 51.8099 75.9406 63.4999C75.9406 75.1899 67.4407 84.6666 56.9555 84.6666C46.4703 84.6666 37.9703 75.1899 37.9703 63.4999Z" fill="#1ABCFE"/>
<path fill-rule="evenodd" clip-rule="evenodd" d="M0 105.833C0 94.1433 8.49994 84.6666 18.9851 84.6666H37.9703V105.833C37.9703 117.523 29.4703 127 18.9851 127C8.49994 127 0 117.523 0 105.833Z" fill="#0ACF83"/>
<path fill-rule="evenodd" clip-rule="evenodd" d="M37.9703 0V42.3333H56.9555C67.4407 42.3333 75.9406 32.8567 75.9406 21.1667C75.9406 9.47664 67.4407 0 56.9555 0H37.9703Z" fill="#FF7262"/>
<path fill-rule="evenodd" clip-rule="evenodd" d="M0 21.1667C0 32.8567 8.49994 42.3333 18.9851 42.3333H37.9703V0H18.9851C8.49994 0 0 9.47664 0 21.1667Z" fill="#F24E1E"/>
<path fill-rule="evenodd" clip-rule="evenodd" d="M0 63.4999C0 75.1899 8.49994 84.6666 18.9851 84.6666H37.9703V42.3333H18.9851C8.49994 42.3333 0 51.8099 0 63.4999Z" fill="#A259FF"/>
</svg>
