<svg width="45" height="45" viewBox="0 0 45 45" fill="none" xmlns="http://www.w3.org/2000/svg">
<path d="M0 22.5C0 10.0736 10.0736 0 22.5 0C34.9264 0 45 10.0736 45 22.5C45 34.9264 34.9264 45 22.5 45C10.0736 45 0 34.9264 0 22.5Z" fill="black"/>
<path fill-rule="evenodd" clip-rule="evenodd" d="M22.5 0C10.0724 0 0 10.3274 0 23.0695C0 33.2605 6.44501 41.9087 15.3873 44.9618C16.5129 45.1699 16.919 44.4599 16.919 43.8492C16.919 43.3011 16.9009 41.8485 16.8942 39.9264C10.6341 41.3189 9.31221 36.8317 9.31221 36.8317C8.29256 34.1672 6.81497 33.4571 6.81497 33.4571C4.77341 32.0253 6.97062 32.0577 6.97062 32.0577C9.231 32.2196 10.4153 34.4355 10.4153 34.4355C12.423 37.9604 15.685 36.9427 16.9618 36.3529C17.1671 34.861 17.7537 33.8433 18.3943 33.2674C13.3998 32.6869 8.14818 30.707 8.14818 21.8645C8.14818 19.3503 9.02572 17.2871 10.4582 15.6773C10.2303 15.0921 9.45208 12.7445 10.6815 9.57106C10.6815 9.57106 12.5697 8.94887 16.8671 11.9326C18.7025 11.4207 20.5957 11.1594 22.4977 11.1554C24.3998 11.1586 26.2932 11.4199 28.1284 11.9326C32.4281 8.94656 34.314 9.57106 34.314 9.57106C35.5434 12.7445 34.7719 15.0921 34.5373 15.6773C35.981 17.2871 36.8473 19.348 36.8473 21.8645C36.8473 30.7301 31.5911 32.6776 26.5786 33.2489C27.3794 33.9613 28.1013 35.3676 28.1013 37.5186C28.1013 40.6041 28.0742 43.0929 28.0742 43.8492C28.0742 44.4668 28.4758 45.1838 29.624 44.9571C38.5618 41.8994 45 33.2582 45 23.0695C45 10.3274 34.9276 0 22.5 0Z" fill="white"/>
</svg>
