<svg width="240" height="234" viewBox="0 0 240 234" fill="none" xmlns="http://www.w3.org/2000/svg">
<g clip-path="url(#clip0_5_64)">
<path d="M42.5 -1.16568e-05H197.5C203.083 -0.00527336 208.612 1.09043 213.77 3.22439C218.929 5.35835 223.616 8.48868 227.564 12.4362C231.511 16.3838 234.642 21.071 236.776 26.2297C238.91 31.3884 240.005 36.9173 240 42.5V191.5C240.005 197.083 238.91 202.612 236.776 207.77C234.642 212.929 231.511 217.616 227.564 221.564C223.616 225.511 218.929 228.642 213.77 230.776C208.612 232.91 203.083 234.005 197.5 234H42.5C36.9174 234.005 31.3885 232.91 26.2297 230.776C21.071 228.642 16.3838 225.511 12.4362 221.564C8.48871 217.616 5.35838 212.929 3.22442 207.77C1.09046 202.612 -0.00524284 197.083 1.88608e-05 191.5V42.5C-0.00524284 36.9173 1.09046 31.3884 3.22442 26.2297C5.35838 21.071 8.48871 16.3838 12.4362 12.4362C16.3838 8.48868 21.071 5.35835 26.2297 3.22439C31.3885 1.09043 36.9174 -0.00527336 42.5 -1.16568e-05Z" fill="#001E36"/>
<path d="M126 165.4H62.6C61.5 165.4 61 164.8 61 163.6V61.4C60.9777 61.2354 60.9887 61.0681 61.0322 60.9079C61.0758 60.7476 61.1511 60.5978 61.2537 60.4672C61.3563 60.3366 61.4841 60.228 61.6295 60.1477C61.7749 60.0675 61.9349 60.0172 62.1 60H82.1C82.2251 59.9772 82.3535 59.9801 82.4775 60.0084C82.6015 60.0367 82.7184 60.0898 82.8212 60.1646C82.9241 60.2394 83.0107 60.3342 83.0758 60.4435C83.1409 60.5527 83.1831 60.674 83.2 60.8V145.1H129.4C130.4 145.1 130.7 145.6 130.5 146.5L127.6 163.9C127.584 164.13 127.523 164.354 127.42 164.56C127.317 164.766 127.174 164.95 127 165.1C126.707 165.303 126.357 165.408 126 165.4Z" fill="#31A8FF"/>
<path d="M142 85.4H159.5C159.974 85.4114 160.432 85.5723 160.809 85.8596C161.186 86.147 161.463 86.5461 161.6 87C162.014 87.7075 162.285 88.4887 162.4 89.3C162.6 90.3 162.8 91.4 162.9 92.4C163 93.4 163.1 94.7 163.1 96C166.103 92.4947 169.731 89.5785 173.8 87.4C178.369 84.9235 183.505 83.6826 188.7 83.8C188.865 83.7777 189.032 83.7886 189.192 83.8322C189.352 83.8758 189.502 83.9511 189.633 84.0537C189.763 84.1563 189.872 84.2841 189.952 84.4295C190.033 84.5748 190.083 84.7349 190.1 84.9V104.8C190.1 105.6 189.6 105.9 188.5 105.9C182.019 105.512 175.539 106.678 169.6 109.3C167.574 110.167 165.74 111.424 164.2 113V164C164.2 165 163.8 165.4 162.9 165.4H143.4C143.216 165.431 143.027 165.424 142.845 165.38C142.663 165.336 142.492 165.255 142.343 165.143C142.193 165.031 142.068 164.889 141.974 164.727C141.881 164.565 141.822 164.386 141.8 164.2V108.4C141.8 106 141.8 103.5 141.7 100.9C141.6 98.3 141.6 95.7 141.5 93.1C141.4 90.9 141.2 88.7 140.9 86.5C140.873 86.3818 140.871 86.2595 140.891 86.1402C140.912 86.0208 140.956 85.9068 141.022 85.8046C141.087 85.7024 141.171 85.614 141.27 85.5446C141.37 85.4752 141.482 85.426 141.6 85.4C141.7 85.3 141.8 85.3 142 85.4Z" fill="#31A8FF"/>
</g>
<defs>
<clipPath id="clip0_5_64">
<rect width="240" height="234" fill="white"/>
</clipPath>
</defs>
</svg>
