<svg width="131" height="127" viewBox="0 0 131 127" fill="none" xmlns="http://www.w3.org/2000/svg">
<path d="M0 45.9619C0 29.8737 0 21.8296 3.20924 15.6848C6.03217 10.2796 10.5366 5.88504 16.0769 3.13097C22.3754 0 30.6206 0 47.111 0H83.0641C99.5544 0 107.8 0 114.098 3.13097C119.638 5.88504 124.143 10.2796 126.966 15.6848C130.175 21.8296 130.175 29.8737 130.175 45.9619V81.0381C130.175 97.1263 130.175 105.17 126.966 111.315C124.143 116.72 119.638 121.115 114.098 123.869C107.8 127 99.5544 127 83.0641 127H47.111C30.6206 127 22.3754 127 16.0769 123.869C10.5366 121.115 6.03217 116.72 3.20924 111.315C0 105.17 0 97.1263 0 81.0381V45.9619Z" fill="#001E36"/>
<path d="M27.8946 93.0559V37.2084C27.8946 36.8285 28.0573 36.6114 28.437 36.6114C34.0421 36.6114 39.6446 36.2858 45.2513 36.2858C54.3488 36.2858 64.1994 39.3206 67.6522 48.6059C68.4658 50.8853 68.8997 53.2191 68.8997 55.6614C68.8997 60.3289 67.8149 64.1824 65.6454 67.2217C59.5848 75.7117 49.0806 75.5798 39.6646 75.5798V93.0016C39.7382 93.5174 39.2877 93.7614 38.851 93.7614H28.5455C28.1116 93.7614 27.8946 93.5443 27.8946 93.0559ZM39.7188 47.0862V65.3221C43.4523 65.5889 47.3591 65.6179 50.9464 64.4537C54.9067 63.3392 57.0755 59.9946 57.0755 55.9871C57.1856 52.5721 55.2782 49.2955 52.0312 48.0631C48.4872 46.6255 43.5445 46.5393 39.7188 47.0862Z" fill="#31A8FF"/>
<path d="M102.73 61.7192C101.089 60.8754 99.3407 60.2581 97.5338 59.8842C95.2118 59.3511 86.0539 57.4844 86.0505 62.1561C86.1317 64.7643 90.3754 66.0421 92.2504 66.7872C98.8329 68.992 106.282 72.9331 106.135 80.8555C106.337 90.7181 96.542 94.6607 88.1462 94.6616C83.7753 94.7058 79.222 94.0453 75.2219 92.2149C74.8401 92.0176 74.5943 91.596 74.6107 91.1663V81.7292C74.5676 81.3509 74.9838 81.0202 75.3093 81.2924C79.2286 83.6048 83.8742 84.7275 88.4081 84.7876C90.4096 84.7876 94.3765 84.5982 94.3464 81.7292C94.3464 78.976 89.6011 77.7101 87.7095 77.0107C84.9675 76.0557 82.3677 74.733 79.9812 73.0786C76.646 70.7577 74.5537 67.0364 74.6107 62.9425C74.5912 53.6561 83.607 49.4879 91.7266 49.4859C95.5224 49.4554 99.5985 49.7296 103.132 51.2335C103.64 51.3795 103.745 51.9016 103.743 52.3695V61.1949C103.775 61.7427 103.152 61.9293 102.73 61.7192Z" fill="#31A8FF"/>
</svg>
